<svg id="Capa_1" data-name="Capa 1" xmlns="http://www.w3.org/2000/svg" viewBox="0 0 375.33 370.12"><defs><style>.cls-1{fill:#b2bcc8;}.cls-2{fill:#002a52;}.cls-3{fill:none;}</style></defs><path class="cls-1" d="M75.55,372.64H295s14.25,50.17-33.07,57.59l-156.21-2.86S78.4,421.1,75.55,401.43,75.55,372.64,75.55,372.64Z" transform="translate(-69.67 -64.94)"/><path class="cls-1" d="M76.12,122.37S67,78.31,105.76,71.63H268.81S292.19,81.32,295,97a81.54,81.54,0,0,1,0,28.79Z" transform="translate(-69.67 -64.94)"/><path class="cls-2" d="M171.63,406.76h29a7.23,7.23,0,0,0,0-14.46h-29a7.23,7.23,0,0,0,0,14.46Z" transform="translate(-69.67 -64.94)"/><path class="cls-3" d="M83.92,395.08a25.55,25.55,0,0,0,25.52,25.52H262.8a25.55,25.55,0,0,0,25.52-25.52h0V378.45H83.92Z" transform="translate(-69.67 -64.94)"/><polyline class="cls-3" points="218.66 73.81 218.66 67.47 14.25 67.47 14.25 299.05 34.65 299.05"/><polyline class="cls-3" points="49.11 299.05 218.66 299.05 218.66 295.15"/><path class="cls-2" d="M84.13,364V132.41H288.54V146H303v-20.8s0,0,0,0V104.92a40,40,0,0,0-40-40H109.65a40,40,0,0,0-40,40V395.08a40,40,0,0,0,40,40H263a40,40,0,0,0,40-40V358.65H288.54V364M263,79.4a25.55,25.55,0,0,1,25.53,25.52v13H84.13v-13A25.55,25.55,0,0,1,109.65,79.4m0,341.2a25.55,25.55,0,0,1-25.52-25.52V378.45H288.54v16.63h0A25.55,25.55,0,0,1,263,420.6" transform="translate(-69.67 -64.94)"/><path class="cls-2" d="M193,82a7.42,7.42,0,0,0-.67-1.24,6.36,6.36,0,0,0-.9-1.1,7.29,7.29,0,0,0-6.52-2,8.07,8.07,0,0,0-1.35.41,7.14,7.14,0,0,0-1.25.67,7.32,7.32,0,0,0-1.1.9A7.2,7.2,0,0,0,179.66,82a8.52,8.52,0,0,0-.42,1.36,7.49,7.49,0,0,0-.14,1.41,7.41,7.41,0,0,0,.14,1.41,7.56,7.56,0,0,0,.42,1.35,7.1,7.1,0,0,0,.66,1.25,7.43,7.43,0,0,0,.9,1.1,6.76,6.76,0,0,0,1.1.9,7.87,7.87,0,0,0,1.25.67,8.07,8.07,0,0,0,1.35.41,7.49,7.49,0,0,0,1.41.14,7.41,7.41,0,0,0,1.41-.14,7.14,7.14,0,0,0,2.61-1.08,6.69,6.69,0,0,0,1.09-.9,6.36,6.36,0,0,0,.9-1.1,7.14,7.14,0,0,0,.67-1.25,7.54,7.54,0,0,0,.41-1.35,7.41,7.41,0,0,0,.14-1.41,7.49,7.49,0,0,0-.14-1.41A8.48,8.48,0,0,0,193,82Z" transform="translate(-69.67 -64.94)"/><rect class="cls-2" x="116.53" y="134.61" width="14.3" height="80.43" rx="1.79" transform="translate(75.14 -103.22) rotate(40.94)"/><rect class="cls-2" x="137.41" y="126.43" width="14.3" height="143.9" rx="1.79" transform="translate(95.68 -111.14) rotate(40.94)"/><path class="cls-2" d="M339.37,246.21a7.42,7.42,0,0,0-.67-1.24,6.8,6.8,0,0,0-.89-1.1,7.27,7.27,0,0,0-6.52-2,7.35,7.35,0,0,0-2.61,1.07,7.93,7.93,0,0,0-1.1.91,7.2,7.2,0,0,0-1.56,2.34,8.41,8.41,0,0,0-.42,1.35,7.58,7.58,0,0,0-.13,1.42,7.4,7.4,0,0,0,.13,1.41,7.83,7.83,0,0,0,.42,1.35,7.1,7.1,0,0,0,1.56,2.35,7.86,7.86,0,0,0,1.1.9,7.35,7.35,0,0,0,2.61,1.07,6.69,6.69,0,0,0,1.41.15,6.76,6.76,0,0,0,1.41-.15,7.24,7.24,0,0,0,1.35-.41,7.1,7.1,0,0,0,1.25-.66,7.32,7.32,0,0,0,1.1-.9,6.8,6.8,0,0,0,.89-1.1,7.52,7.52,0,0,0,.67-1.25,7,7,0,0,0,.41-1.35,7.41,7.41,0,0,0,.14-1.41,7.59,7.59,0,0,0-.14-1.42A7.47,7.47,0,0,0,339.37,246.21Z" transform="translate(-69.67 -64.94)"/><path class="cls-2" d="M332.21,196.52a53.93,53.93,0,1,0,53.92,53.92,54,54,0,0,0-53.92-53.92Zm0,94.37a40.45,40.45,0,1,1,40.44-40.45,40.5,40.5,0,0,1-40.44,40.45Zm0,0" transform="translate(-69.67 -64.94)"/><path class="cls-2" d="M439.69,224.76,422.35,221a92.88,92.88,0,0,0-5.58-13.46l9.6-14.93a6.73,6.73,0,0,0-.9-8.41l-27-27a6.73,6.73,0,0,0-8.41-.9l-14.93,9.59a95.18,95.18,0,0,0-13.46-5.58L357.89,143a6.73,6.73,0,0,0-6.58-5.31h-38.2a6.74,6.74,0,0,0-6.59,5.31l-3.77,17.33a95.06,95.06,0,0,0-13.45,5.58l-14.93-9.59a6.75,6.75,0,0,0-8.42.9l-27,27a6.75,6.75,0,0,0-.9,8.41l9.6,14.93A94,94,0,0,0,242.06,221l-17.34,3.77a6.73,6.73,0,0,0-5.31,6.58v38.2a6.75,6.75,0,0,0,5.31,6.59l17.34,3.77a93.9,93.9,0,0,0,5.58,13.45L238,308.28a6.75,6.75,0,0,0,.9,8.41l27,27a6.76,6.76,0,0,0,8.42.9L289.3,335a93.9,93.9,0,0,0,13.45,5.58l3.77,17.34a6.74,6.74,0,0,0,6.59,5.31h38.2a6.73,6.73,0,0,0,6.58-5.31l3.77-17.34A94,94,0,0,0,375.12,335l14.93,9.6a6.75,6.75,0,0,0,8.41-.9l27-27a6.73,6.73,0,0,0,.9-8.41l-9.6-14.93a92.76,92.76,0,0,0,5.58-13.45l17.34-3.77a6.75,6.75,0,0,0,5.31-6.59v-38.2a6.73,6.73,0,0,0-5.31-6.58Zm-8.17,39.35-15.9,3.45a6.76,6.76,0,0,0-5.06,4.78,80.77,80.77,0,0,1-7.47,18,6.74,6.74,0,0,0,.2,7l8.8,13.69-19.32,19.33-13.7-8.8a6.73,6.73,0,0,0-6.95-.2,81,81,0,0,1-18,7.47,6.74,6.74,0,0,0-4.77,5.06l-3.46,15.9H318.54l-3.46-15.9a6.74,6.74,0,0,0-4.77-5.06,80.77,80.77,0,0,1-18-7.47,6.74,6.74,0,0,0-7,.2l-13.69,8.8L252.32,311l8.8-13.69a6.74,6.74,0,0,0,.2-7,80.77,80.77,0,0,1-7.47-18,6.74,6.74,0,0,0-5.06-4.78l-15.9-3.45V236.78l15.9-3.46a6.74,6.74,0,0,0,5.06-4.77,81,81,0,0,1,7.47-18,6.73,6.73,0,0,0-.2-6.95l-8.8-13.7,19.32-19.33,13.7,8.81a6.74,6.74,0,0,0,7,.2,80.77,80.77,0,0,1,18-7.47,6.74,6.74,0,0,0,4.77-5.06l3.46-15.9h27.33l3.46,15.9a6.74,6.74,0,0,0,4.77,5.06,80.77,80.77,0,0,1,18,7.47,6.74,6.74,0,0,0,7-.2l13.7-8.81,19.32,19.33-8.8,13.7a6.73,6.73,0,0,0-.2,6.95,81,81,0,0,1,7.47,18,6.74,6.74,0,0,0,5.06,4.77l15.9,3.46Zm0,0" transform="translate(-69.67 -64.94)"/></svg>