<svg id="Capa_1" data-name="Capa 1" xmlns="http://www.w3.org/2000/svg" viewBox="0 0 426.93 426.85"><defs><style>.cls-1{fill:#b2bcc8;}.cls-2{fill:#002a52;}</style></defs><polygon class="cls-1" points="8.21 356.34 262.58 356.34 262.58 400.9 247.26 418.08 28.64 418.08 5.43 402.29 8.21 356.34"/><polygon class="cls-1" points="26.32 7.75 250.51 7.75 263.51 30.95 263.51 59.27 5.43 62.05 7.75 26.68 26.32 7.75"/><path class="cls-2" d="M154.1,92.5h60a8.34,8.34,0,1,0,0-16.67h-60a8.34,8.34,0,1,0,0,16.67Z" transform="translate(-49.05 -49.15)"/><path class="cls-2" d="M184.11,427.44a8.36,8.36,0,1,0,5.89,2.45A8.4,8.4,0,0,0,184.11,427.44Z" transform="translate(-49.05 -49.15)"/><path class="cls-2" d="M391.64,261A37.58,37.58,0,0,0,355,197.57l-30.67-53.11a8.33,8.33,0,0,0-13.78-1L215.07,265.42,175,288.55a47.88,47.88,0,1,0,47.88,82.94l4.77-2.76,16.65,28.83H65.73V119.18H302.5v2.5a8.34,8.34,0,1,0,16.67,0V81.88a32.76,32.76,0,0,0-32.73-32.73H81.78A32.77,32.77,0,0,0,49.05,81.88V443.27A32.77,32.77,0,0,0,81.78,476H286.44a32.76,32.76,0,0,0,32.73-32.73V340.38l97.09-13.8a8.33,8.33,0,0,0,6.05-12.42Zm-20.13-47.74A20.9,20.9,0,0,1,382.9,245.9l-19.17-33.2A21,21,0,0,1,371.51,213.29ZM264.6,331.3l-33.93-58.76,60.64-77.44L362,317.46Zm-50.06,25.75A31.21,31.21,0,0,1,183.33,303l34.25-19.77,31.21,54.06Zm42.59-5.33,19.69,34.11-15,8.68-19.7-34.11ZM81.78,65.82H286.44A16.08,16.08,0,0,1,302.5,81.88V102.5H65.73V81.88A16.07,16.07,0,0,1,81.78,65.82ZM286.44,459.33H81.78a16.08,16.08,0,0,1-16-16.06v-29H302.5v29A16.09,16.09,0,0,1,286.44,459.33Zm16.06-61.77H289.85l2.53-1.46a8.34,8.34,0,0,0,3.05-11.39l-21.85-37.85,28.92-4.11Zm77.24-82.63L302.39,181l13.68-17.46L401.7,311.81Z" transform="translate(-49.05 -49.15)"/><path class="cls-2" d="M474.86,171a8.32,8.32,0,0,0-11.38-3.05l-40.88,23.6A8.34,8.34,0,0,0,430.94,206l40.87-23.61A8.32,8.32,0,0,0,474.86,171Z" transform="translate(-49.05 -49.15)"/><path class="cls-2" d="M389.13,172.71a8.5,8.5,0,0,0,2.16.29,8.35,8.35,0,0,0,8-6.18l6-22.25a8.33,8.33,0,1,0-16.1-4.31l-6,22.24A8.32,8.32,0,0,0,389.13,172.71Z" transform="translate(-49.05 -49.15)"/><path class="cls-2" d="M463.08,243.43l-23-6.16a8.33,8.33,0,1,0-4.31,16.1l23,6.16a8.15,8.15,0,0,0,2.17.29,8.34,8.34,0,0,0,2.15-16.39Z" transform="translate(-49.05 -49.15)"/><path class="cls-2" d="M215.51,151.83a8.34,8.34,0,0,0-8.33-8.34h-115a8.34,8.34,0,0,0,0,16.68h115A8.33,8.33,0,0,0,215.51,151.83Z" transform="translate(-49.05 -49.15)"/><path class="cls-2" d="M207.18,200.19a8.36,8.36,0,1,0-5.89-2.45A8.36,8.36,0,0,0,207.18,200.19Z" transform="translate(-49.05 -49.15)"/><path class="cls-2" d="M181.05,191.85a8.33,8.33,0,0,0-8.33-8.34H92.14a8.34,8.34,0,0,0,0,16.68h80.58A8.34,8.34,0,0,0,181.05,191.85Z" transform="translate(-49.05 -49.15)"/><path class="cls-2" d="M124.16,240.2h63.21a8.34,8.34,0,1,0,0-16.67H124.16a8.34,8.34,0,1,0,0,16.67Z" transform="translate(-49.05 -49.15)"/><path class="cls-2" d="M92.07,223.53a8.34,8.34,0,1,0,0,16.67h.38a8.34,8.34,0,1,0,0-16.67Z" transform="translate(-49.05 -49.15)"/></svg>