<?xml version="1.0" encoding="utf-8"?>
<!-- Generator: Adobe Illustrator 24.2.0, SVG Export Plug-In . SVG Version: 6.00 Build 0)  -->
<svg version="1.1" id="Layer_1" xmlns="http://www.w3.org/2000/svg" xmlns:xlink="http://www.w3.org/1999/xlink" x="0px" y="0px"
	 viewBox="0 0 257.8 73.1" style="enable-background:new 0 0 257.8 73.1;" xml:space="preserve">
<style type="text/css">
	.st0{fill:#EC1D42;}
	.st1{fill:#002A53;}
</style>
<g>
	<path class="st0" d="M25.6,0h-1.3C10.9,0-0.1,10.9-0.1,24.3V50h25.6C39,50,49.9,39,49.9,25.6v-1.3C49.9,10.9,39,0,25.6,0z
		 M41.5,24.3v1.3c0,8.8-7.2,15.9-15.9,15.9H8.3V24.3c0-8.8,7.2-15.9,15.9-15.9h1.3C34.4,8.4,41.5,15.5,41.5,24.3z"/>
	<path class="st1" d="M39.3,23.1H13.6v25.6C13.6,62.1,24.5,73,37.9,73h1.3c13.4,0,24.3-10.9,24.3-24.3v-1.3
		C63.6,34,52.7,23.1,39.3,23.1z M55.2,47.4v1.3c0,8.8-7.2,15.9-15.9,15.9h-1.3c-8.8,0-15.9-7.1-15.9-15.9V31.5h17.3
		C48,31.5,55.2,38.6,55.2,47.4z"/>
	<path class="st0" d="M25.6,0h-1.3C10.9,0-0.1,10.9-0.1,24.3v0.5h8.4v-0.5c0-8.8,7.2-15.9,15.9-15.9h1.3c8.8,0,15.9,7.1,15.9,15.9
		v1.3c0,8.8-7.2,15.9-15.9,15.9h-1.8V50h1.8C39,50,49.9,39,49.9,25.6v-1.3C49.9,10.9,39,0,25.6,0z"/>
	<path class="st1" d="M69.2,17h10.9c1.8,0,3.4,0.1,4.9,0.4c1.5,0.3,2.8,0.8,3.9,1.4c1.1,0.6,2,1.5,2.6,2.6c0.6,1.1,0.9,2.4,0.9,4
		c0,1.6-0.5,3.2-1.4,4.5c-1,1.4-2.4,2.4-4.4,2.9v0.2c2.5,0.4,4.4,1.3,5.7,2.6c1.3,1.3,2,3.2,2,5.5c0,1.7-0.3,3.2-1,4.4
		c-0.7,1.3-1.6,2.3-2.7,3.1c-1.2,0.8-2.6,1.5-4.2,1.9c-1.6,0.4-3.3,0.6-5.2,0.6H69.2V17z M79.6,31.2c2.4,0,4.1-0.4,5.2-1.3
		c1.1-0.9,1.6-2.1,1.6-3.7c0-1.6-0.6-2.7-1.7-3.4c-1.1-0.7-2.8-1-5-1h-4.4v9.5H79.6z M80.4,46.5c2.5,0,4.4-0.5,5.8-1.4
		c1.4-0.9,2-2.4,2-4.3c0-1.8-0.7-3.1-2-3.9c-1.3-0.9-3.3-1.3-5.9-1.3h-5.1v11H80.4z"/>
	<path class="st1" d="M141.1,25.5h6v25.6h-6V25.5z"/>
	<path class="st1" d="M181.2,25.5h6v25.6h-6V25.5z"/>
	<path class="st1" d="M104.5,28v-2.4h-1h-5v25.6h6V35.5c-0.1-5.9,8.6-4.9,8.6-4.9v-5.6C113.1,25.1,108.1,23.6,104.5,28z"/>
	<path class="st1" d="M132.8,27.8c-0.2-0.2-0.3-0.4-0.5-0.6c0,0,0,0,0,0c0,0,0,0-0.1-0.1c-0.1-0.1-0.1-0.1-0.2-0.2
		c-4.1-3.9-14.8-1.9-14.8-1.9v2v3.6v0c0,0,0,0,0,0c0,0,7.2-2.3,10.1,0l0,0c0.3,0.2,0.5,0.4,0.7,0.7c0.4,0.5,0.6,1,0.8,1.6
		c0.2,0.6,0.3,1.2,0.3,1.9c-5.3,0.6-9.1,1.6-11.5,3.1c-2.4,1.5-3.6,3.6-3.6,6.4c0,2.3,0.7,4.1,2.1,5.5c1.4,1.4,3.2,2.1,5.5,2.1
		c1.5,0,3-0.3,4.3-1c1.1-0.6,2.2-1.3,3.2-2.1v2.5h1.1h4.9V36C135.2,32.4,134.4,29.7,132.8,27.8z M126.4,46.4
		c-0.9,0.5-1.8,0.7-2.9,0.7c-1.1,0-2-0.3-2.6-0.8c-0.7-0.5-1-1.4-1-2.5c0-0.6,0.2-1.2,0.5-1.8c0.3-0.6,0.8-1.1,1.5-1.5
		c0.7-0.4,1.7-0.8,2.8-1.2c1.2-0.3,2.6-0.6,4.4-0.8v5.7C128.2,45.2,127.3,45.9,126.4,46.4z"/>
	<path class="st0" d="M144.1,21.1c-1.1,0-2-0.3-2.7-0.9c-0.7-0.6-1-1.4-1-2.5c0-1,0.3-1.8,1-2.5c0.7-0.6,1.6-1,2.7-1
		c1.1,0,2,0.3,2.7,1c0.7,0.6,1,1.5,1,2.5c0,1-0.3,1.8-1,2.5C146.1,20.7,145.2,21.1,144.1,21.1z"/>
	<path class="st0" d="M184.2,21.1c-1.1,0-2-0.3-2.7-0.9c-0.7-0.6-1-1.4-1-2.5c0-1,0.3-1.8,1-2.5c0.7-0.6,1.6-1,2.7-1
		c1.1,0,2,0.3,2.7,1c0.7,0.6,1,1.5,1,2.5c0,1-0.3,1.8-1,2.5C186.2,20.7,185.3,21.1,184.2,21.1z"/>
	<path class="st1" d="M173.4,27.6c-1.3-1.8-3.3-2.6-6-2.6c-1.8,0-3.3,0.4-4.7,1.2c-1.3,0.8-2.6,1.8-3.7,2.9h-0.2v-3.4h-0.4h-0.5
		h-4.5v25.6h6V33.3c1.1-1,2-1.8,2.9-2.4c0.9-0.5,1.8-0.8,3-0.8c1.4,0,2.5,0.4,3.1,1.3c0.6,0.9,0.9,2.4,0.9,4.5v15.3h6V35.1
		C175.2,31.8,174.6,29.3,173.4,27.6z"/>
	<path class="st1" d="M208.9,25.5v17.6c-1,1.3-1.9,2.2-2.7,2.7c-0.9,0.6-1.8,0.8-3,0.8c-1.4,0-2.4-0.4-3-1.3
		c-0.6-0.9-0.9-2.4-0.9-4.5V25.5h-6v16.1c0,3.3,0.6,5.8,1.9,7.5c1.3,1.8,3.3,2.6,6,2.6c1.8,0,3.3-0.4,4.6-1.2
		c1.3-0.8,2.5-1.9,3.6-3.2h0.2v3.8h0.5h0.2h4.7V25.5H208.9z"/>
	<path class="st1" d="M256,27.6c-1.3-1.8-3.3-2.6-6-2.6c-1.6,0-3.1,0.4-4.4,1.3c-1.3,0.9-2.6,2-3.8,3.3c-0.6-1.5-1.5-2.6-2.6-3.4
		c-1.1-0.8-2.6-1.2-4.5-1.2c-1.6,0-3,0.4-4.3,1.2c-1.3,0.8-2.4,1.8-3.5,2.9h-0.2v-3.5h-1v0h-4.4v25.6h6V33.3c2-2.1,3.8-3.2,5.4-3.2
		c1.4,0,2.4,0.4,3,1.3c0.6,0.9,1,2.4,1,4.5v15.3h6V33.3c2-2.1,3.8-3.2,5.4-3.2c1.3,0,2.3,0.4,3,1.3c0.6,0.9,1,2.4,1,4.5v15.3h6.1
		V35.1C257.9,31.8,257.2,29.3,256,27.6z"/>
</g>
</svg>
